# xmcd
#
# Track frame offsets: 
#        150
#        25445
#        45225
#        68540
#        92525
#        117065
#        139767
#        162112
#        186257
#        205450
#        229240
#        247125
#        263812
#
# Disc length: 3795 seconds
#
# Revision: 8
# Processed by: cddbd v1.5.2PL0 Copyright (c) Steve Scherf et al.
# Submitted via: ExactAudioCopyFreeDBPlugin 1.0
#
DISCID=af0ed10d
DTITLE=Curtis Mayfield - New World Order
DYEAR=1996
DGENRE=Soul
TTITLE0=New World Order
TTITLE1=Ms. Martha
TTITLE2=Back To Living Again
TTITLE3=No One Knows About A Good Thing (You Don't Have To Cry)
TTITLE4=Just A Little Bit Of Love
TTITLE5=We People Who Are Darker Than Blue
TTITLE6=I Believe In You
TTITLE7=Here But I'm Gone
TTITLE8=It Was Love That We Needed
TTITLE9=The Got Dang Song
TTITLE10=The Girl I Find Stays On My Mind
TTITLE11=Let's Not Forget
TTITLE12=Oh So Beautiful
EXTD=
EXTT0=
EXTT1=
EXTT2=
EXTT3=
EXTT4=
EXTT5=
EXTT6=
EXTT7=
EXTT8=
EXTT9=
EXTT10=
EXTT11=
EXTT12=
PLAYORDER=
